<svg width="32" height="32" viewBox="0 0 32 32" fill="none" xmlns="http://www.w3.org/2000/svg">
<path d="M24.5195 12.9426C24.4454 13.4531 24.1088 14.1465 23.7227 14.7495C23.2355 15.5102 22.4623 16.0431 21.5775 16.2281L17.6798 17.0431C17.0534 17.1741 16.4853 17.502 16.0588 17.9787L13.5032 20.8354C13.0228 21.3723 12.6871 21.2443 12.6871 20.5242C12.6813 20.5509 11.4188 23.8069 14.7647 25.7369C16.0503 26.4784 17.901 26.212 19.1866 25.4704L25.9984 21.5413C28.546 20.0719 30.3446 17.5861 30.9425 14.7086C30.9661 14.5948 30.9844 14.4806 31.0041 14.3664L24.5195 12.9426Z" fill="url(#paint0_linear_17_14200)"/>
<path d="M22.7529 9.01798C24.0386 9.75953 24.5638 10.8635 24.5638 12.3466C24.5638 12.5479 24.548 12.7469 24.5195 12.9427L27.2643 14.1218L31.0041 14.3665C31.483 11.595 30.5445 8.74226 28.8621 6.47469C27.596 4.76825 25.9668 3.28738 24.0082 2.15762C22.4172 1.2399 20.7638 0.635249 19.1026 0.303467L17.2362 2.72047L16.6466 5.49584L22.7529 9.01798Z" fill="url(#paint1_linear_17_14200)"/>
<path d="M0.783597 11.0518C0.782899 11.054 0.784832 11.0546 0.78556 11.0524C0.929583 10.6205 1.11018 10.1385 1.33564 9.62369C2.51334 6.9343 4.78286 5.14062 7.57492 4.22608C10.367 3.31156 13.4155 3.63212 15.9601 5.09988L16.6465 5.49578L19.1025 0.303412C11.291 -1.25676 3.30728 3.33253 0.793528 11.0217C0.792327 11.0254 0.787957 11.0382 0.783597 11.0518Z" fill="url(#paint2_linear_17_14200)"/>
<path d="M18.9198 25.4704C17.6342 26.212 16.0502 26.212 14.7646 25.4704C14.5901 25.3697 14.4256 25.2566 14.27 25.134L12.009 26.6885L10.0602 29.8376C12.2232 31.6377 15.032 32.2164 17.8388 31.8945C19.9511 31.6523 22.0494 30.9832 24.008 29.8534C25.5991 28.9357 26.9499 27.8075 28.0681 26.5361L26.9062 23.7128L25.0261 21.9482L18.9198 25.4704Z" fill="url(#paint3_linear_17_14200)"/>
<path d="M14.27 25.1341C13.2795 24.3539 12.687 23.1572 12.687 21.8754V21.7476V11.0724C12.687 10.4687 12.8649 10.3661 13.3882 10.668C12.5822 10.203 10.7202 8.60701 8.42105 9.93314C7.13545 10.6747 6.07678 12.3116 6.07678 13.7946V21.6529C6.07678 24.5917 7.59894 27.6573 9.79436 29.6133C9.8812 29.6906 9.9711 29.7636 10.0602 29.8377L14.27 25.1341Z" fill="url(#paint4_linear_17_14200)"/>
<path d="M27.9104 5.3123C27.9089 5.3106 27.9073 5.31197 27.9089 5.31368C28.2113 5.65428 28.5388 6.0515 28.8723 6.50399C30.6148 8.86764 31.2658 11.8613 30.6626 14.7343C30.0593 17.6072 28.2571 20.0846 25.7125 21.5523L25.0261 21.9482L28.0681 26.5361C33.3264 20.5576 33.34 11.3554 27.9315 5.33594C27.9289 5.33306 27.92 5.32287 27.9104 5.3123Z" fill="url(#paint5_linear_17_14200)"/>
<path d="M6.34355 13.7946C6.34354 12.3115 7.13551 10.9411 8.42113 10.1995C8.59565 10.0989 8.77601 10.0131 8.96002 9.93976L8.74304 7.20627L7.21861 4.07886C4.57671 5.05029 2.4397 7.0579 1.31528 9.64732C0.469097 11.596 9.792e-06 13.746 0 16.0055C0 17.8409 0.302549 19.5738 0.845532 21.1769L3.87391 21.5833L6.34355 20.8389V13.7946V13.7946Z" fill="url(#paint6_linear_17_14200)"/>
<path d="M8.96003 9.93976C10.1316 9.47288 11.4652 9.55864 12.5763 10.1995L12.6871 10.2634L21.5825 15.3943C22.2065 15.7543 22.1498 16.1084 21.4445 16.2559L21.9577 16.1486C22.6329 16.0074 23.2498 15.6623 23.7215 15.1595C24.5327 14.2949 24.8304 13.2518 24.8304 12.3465C24.8304 10.8634 24.0385 9.49299 22.7529 8.75144L15.941 4.82233C13.3935 3.35292 10.3394 3.03959 7.5461 3.96107C7.4356 3.99752 7.32744 4.03885 7.21863 4.07886L8.96003 9.93976Z" fill="url(#paint7_linear_17_14200)"/>
<path d="M19.3222 31.6523C19.3245 31.6518 19.3241 31.6498 19.3218 31.6503C18.8753 31.7417 18.3673 31.8264 17.8083 31.8888C14.8881 32.2145 11.9676 31.2809 9.77876 29.3225C7.58999 27.3641 6.34359 24.5662 6.3436 21.6307L6.34359 20.8389L0.845581 21.1769C3.39893 28.7156 11.369 33.3285 19.2912 31.6588C19.295 31.658 19.3083 31.6553 19.3222 31.6523Z" fill="url(#paint8_linear_17_14200)"/>
<defs>
<linearGradient id="paint0_linear_17_14200" x1="20.0601" y1="23.7699" x2="23.2076" y2="12.8067" gradientUnits="userSpaceOnUse">
<stop stop-color="#1724C9"/>
<stop offset="1" stop-color="#1C64F2"/>
</linearGradient>
<linearGradient id="paint1_linear_17_14200" x1="27.3094" y1="10.4004" x2="19.0298" y2="2.14987" gradientUnits="userSpaceOnUse">
<stop stop-color="#1C64F2"/>
<stop offset="1" stop-color="#0092FF"/>
</linearGradient>
<linearGradient id="paint2_linear_17_14200" x1="16.1645" y1="5.02115" x2="3.67432" y2="5.8104" gradientUnits="userSpaceOnUse">
<stop stop-color="#0092FF"/>
<stop offset="1" stop-color="#45B2FF"/>
</linearGradient>
<linearGradient id="paint3_linear_17_14200" x1="15.3197" y1="28.6626" x2="26.5365" y2="25.6359" gradientUnits="userSpaceOnUse">
<stop stop-color="#1C64F2"/>
<stop offset="1" stop-color="#0092FF"/>
</linearGradient>
<linearGradient id="paint4_linear_17_14200" x1="7.26869" y1="15.6827" x2="15.2323" y2="23.9347" gradientUnits="userSpaceOnUse">
<stop stop-color="#1724C9"/>
<stop offset="1" stop-color="#1C64F2"/>
</linearGradient>
<linearGradient id="paint5_linear_17_14200" x1="25.4504" y1="21.6356" x2="31.0069" y2="10.4345" gradientUnits="userSpaceOnUse">
<stop stop-color="#0092FF"/>
<stop offset="1" stop-color="#45B2FF"/>
</linearGradient>
<linearGradient id="paint6_linear_17_14200" x1="5.36387" y1="9.13092" x2="2.39054" y2="20.3065" gradientUnits="userSpaceOnUse">
<stop stop-color="#1C64F2"/>
<stop offset="1" stop-color="#0092FF"/>
</linearGradient>
<linearGradient id="paint7_linear_17_14200" x1="20.5431" y1="8.59936" x2="9.67768" y2="11.3046" gradientUnits="userSpaceOnUse">
<stop stop-color="#1724C9"/>
<stop offset="1" stop-color="#1C64F2"/>
</linearGradient>
<linearGradient id="paint8_linear_17_14200" x1="6.40679" y1="21.3566" x2="13.3326" y2="31.7745" gradientUnits="userSpaceOnUse">
<stop stop-color="#0092FF"/>
<stop offset="1" stop-color="#45B2FF"/>
</linearGradient>
</defs>
</svg>
